<svg xmlns="http://www.w3.org/2000/svg" xmlns:xlink="http://www.w3.org/1999/xlink" width="550" zoomAndPan="magnify" viewBox="0 0 412.5 412.499996" height="550" preserveAspectRatio="xMidYMid meet" version="1.0"><defs><clipPath id="8f3bc7ad62"><path d="M 23.105469 70.277344 L 388.664062 70.277344 L 388.664062 341.449219 L 23.105469 341.449219 Z M 23.105469 70.277344 " clip-rule="nonzero"/></clipPath></defs><g clip-path="url(#8f3bc7ad62)"><path fill="#ea4335" d="M 226.074219 341.71875 L 225.320312 341.71875 C 223.492188 341.519531 222.191406 341.34375 221.425781 341.195312 C 217.121094 340.351562 213.507812 338.484375 210.589844 335.59375 C 206.1875 331.230469 201.074219 326.140625 195.257812 320.320312 C 195.167969 320.226562 195.078125 320.230469 194.984375 320.324219 C 191.867188 323.476562 189.242188 326.125 187.101562 328.265625 C 182.914062 332.453125 177.527344 334.582031 171.636719 334.605469 C 169.597656 334.613281 167.65625 334.3125 165.8125 333.707031 C 156.746094 330.726562 150.503906 322.265625 151.4375 312.632812 C 151.445312 312.542969 151.417969 312.46875 151.355469 312.40625 C 151.289062 312.339844 151.214844 312.316406 151.125 312.324219 C 142.3125 313.222656 134.074219 308.019531 130.667969 299.980469 C 129.324219 296.8125 128.914062 293.511719 129.164062 290.113281 C 129.171875 290.015625 129.140625 289.933594 129.070312 289.863281 C 129 289.792969 128.914062 289.765625 128.816406 289.773438 C 125.539062 290.089844 121.957031 289.75 118.929688 288.328125 C 113.726562 285.886719 110.097656 282.050781 108.042969 276.8125 C 107.105469 274.421875 106.757812 271.4375 107.003906 267.855469 C 107.007812 267.789062 106.984375 267.734375 106.9375 267.691406 C 106.894531 267.644531 106.835938 267.625 106.773438 267.628906 C 102.878906 267.933594 99.234375 267.109375 95.847656 265.15625 C 91.078125 262.410156 87.898438 258.582031 86.308594 253.671875 C 85.21875 250.3125 84.914062 247.117188 85.390625 244.09375 C 85.867188 241.070312 86.894531 238.207031 88.464844 235.515625 C 88.546875 235.378906 88.527344 235.257812 88.410156 235.152344 C 85.625 232.617188 83.117188 230.097656 80.886719 227.589844 C 80.191406 226.8125 79.613281 225.8125 79.148438 224.59375 C 78.183594 222.046875 77.617188 219.316406 77.648438 216.449219 C 77.671875 213.917969 77.660156 210.214844 77.617188 205.347656 C 77.609375 204.515625 77.199219 203.699219 76.386719 202.902344 C 72.425781 199.003906 69.210938 195.78125 66.746094 193.238281 C 66.605469 193.097656 66.457031 193.085938 66.296875 193.207031 C 65.859375 193.546875 65.15625 194.023438 64.1875 194.636719 C 62.445312 195.746094 60.6875 195.164062 59.273438 193.832031 C 57.714844 192.359375 54.777344 189.417969 50.460938 185.007812 C 39.230469 173.527344 30.710938 164.914062 24.894531 159.167969 C 23.730469 158.019531 23.453125 156.734375 24.066406 155.320312 C 24.117188 155.207031 24.183594 155.101562 24.269531 155.011719 C 27.183594 151.832031 30.535156 148.652344 33.390625 145.804688 C 53.652344 125.585938 71.921875 107.304688 88.199219 90.960938 C 94.011719 85.128906 100.222656 78.824219 106.832031 72.050781 C 107.980469 70.878906 109.332031 70.488281 110.890625 70.878906 C 111.398438 71.007812 112.222656 71.691406 112.691406 72.164062 C 125.472656 85.035156 136.488281 96.03125 145.734375 105.152344 C 146.328125 105.738281 146.875 106.339844 147.371094 106.953125 C 147.492188 107.101562 147.597656 107.261719 147.6875 107.429688 C 148.144531 108.3125 148.195312 109.332031 147.832031 110.488281 C 147.628906 111.136719 147.023438 111.960938 146.011719 112.953125 C 143.871094 115.066406 142.675781 116.25 142.433594 116.515625 C 142.375 116.574219 142.347656 116.648438 142.351562 116.730469 C 142.351562 116.8125 142.382812 116.886719 142.441406 116.945312 L 147.042969 121.546875 C 147.304688 121.804688 147.617188 121.933594 147.984375 121.933594 L 195.78125 121.933594 C 196 121.933594 196.191406 121.863281 196.363281 121.726562 C 199.3125 119.324219 202.75 117.71875 206.667969 116.921875 C 207.46875 116.757812 208.152344 116.675781 208.714844 116.675781 C 227.265625 116.695312 247.554688 116.6875 269.585938 116.652344 C 269.625 116.648438 269.652344 116.628906 269.671875 116.59375 C 269.6875 116.554688 269.679688 116.519531 269.652344 116.488281 C 268.734375 115.46875 267.777344 114.484375 266.785156 113.542969 C 265.738281 112.542969 265.066406 111.644531 264.773438 110.839844 C 263.917969 108.488281 265.132812 106.929688 266.9375 105.128906 C 279.390625 92.710938 287.511719 84.527344 291.296875 80.574219 C 295.796875 75.875 298.777344 72.828125 300.234375 71.433594 C 300.335938 71.335938 300.449219 71.25 300.574219 71.183594 C 301.558594 70.644531 302.628906 70.511719 303.78125 70.789062 C 304.433594 70.949219 305.347656 71.695312 306.53125 73.027344 C 307.308594 73.902344 312.15625 78.804688 321.074219 87.734375 C 341.007812 107.6875 359.21875 125.902344 375.710938 142.378906 C 379.851562 146.511719 383.722656 150.421875 387.328125 154.105469 C 387.386719 154.164062 387.605469 154.445312 387.988281 154.957031 C 388.058594 155.050781 388.117188 155.15625 388.160156 155.265625 C 388.851562 157.015625 388.382812 158.3125 387.179688 159.605469 C 387.019531 159.777344 386.628906 160.171875 386.011719 160.792969 C 374.691406 172.136719 364.085938 182.769531 354.199219 192.691406 C 353.445312 193.445312 352.78125 194.046875 352.214844 194.492188 C 352.121094 194.566406 352.015625 194.628906 351.90625 194.675781 C 350.769531 195.160156 349.613281 195.148438 348.433594 194.636719 C 348.339844 194.597656 348.257812 194.546875 348.1875 194.484375 L 345.492188 192.121094 C 345.386719 192.027344 345.261719 191.980469 345.121094 191.984375 C 344.980469 191.992188 344.855469 192.042969 344.757812 192.144531 C 342.5625 194.363281 339.980469 196.933594 337.011719 199.851562 C 336.53125 200.316406 336.292969 200.972656 336.296875 201.8125 C 336.316406 208.648438 336.507812 213.269531 336.089844 217.714844 C 335.707031 221.765625 334.019531 225.261719 331.03125 228.210938 C 330.71875 228.523438 326.417969 232.785156 318.132812 241 C 318.054688 241.078125 318.015625 241.171875 318.015625 241.28125 C 318.019531 241.390625 318.058594 241.480469 318.136719 241.558594 C 319.171875 242.5625 320.207031 243.671875 321.242188 244.886719 C 325.972656 250.40625 327.671875 257.773438 325.367188 264.761719 C 323.710938 269.777344 320.65625 273.714844 316.207031 276.582031 C 312.042969 279.257812 307.5625 280.433594 302.769531 280.113281 C 302.667969 280.109375 302.582031 280.136719 302.507812 280.203125 C 302.4375 280.273438 302.398438 280.355469 302.398438 280.453125 C 302.300781 285.609375 300.316406 290.527344 296.800781 294.367188 C 292.957031 298.566406 288.15625 301.019531 282.394531 301.722656 C 280.480469 301.957031 278.675781 301.886719 276.972656 301.519531 C 276.882812 301.496094 276.804688 301.515625 276.730469 301.574219 C 276.660156 301.632812 276.621094 301.707031 276.621094 301.800781 C 276.632812 306.164062 275.429688 310.203125 273.015625 313.917969 C 269.664062 319.078125 265.007812 322.371094 259.050781 323.800781 C 255.230469 324.71875 251.5 324.566406 247.863281 323.339844 C 247.75 323.300781 247.679688 323.339844 247.65625 323.460938 C 246.328125 330.054688 242.769531 335.097656 236.972656 338.589844 C 233.601562 340.621094 230.328125 341.308594 226.074219 341.71875 Z M 62.03125 181.503906 C 62.09375 181.566406 62.160156 181.566406 62.222656 181.503906 L 134.445312 108.941406 C 134.507812 108.875 134.507812 108.8125 134.445312 108.746094 L 109.6875 84.109375 C 109.625 84.042969 109.558594 84.042969 109.496094 84.109375 L 37.332031 156.613281 C 37.265625 156.679688 37.265625 156.742188 37.332031 156.808594 Z M 374.988281 156.890625 C 375.039062 156.839844 375.066406 156.773438 375.066406 156.699219 C 375.066406 156.625 375.039062 156.5625 374.988281 156.507812 L 302.910156 84.433594 C 302.855469 84.378906 302.792969 84.351562 302.71875 84.351562 C 302.644531 84.351562 302.582031 84.378906 302.527344 84.433594 L 278.089844 108.871094 C 278.039062 108.921875 278.011719 108.984375 278.011719 109.058594 C 278.011719 109.132812 278.039062 109.199219 278.089844 109.25 L 350.167969 181.328125 C 350.21875 181.382812 350.285156 181.40625 350.359375 181.40625 C 350.433594 181.40625 350.496094 181.382812 350.550781 181.328125 Z M 185.503906 132.328125 L 143.050781 132.328125 C 142.792969 132.328125 142.574219 132.238281 142.390625 132.054688 L 134.601562 124.304688 C 134.523438 124.226562 134.425781 124.183594 134.316406 124.183594 C 134.203125 124.183594 134.109375 124.226562 134.03125 124.304688 L 73.625 185 C 73.546875 185.078125 73.507812 185.175781 73.507812 185.289062 C 73.507812 185.402344 73.550781 185.496094 73.628906 185.578125 C 77.828125 189.699219 81.261719 193.097656 83.929688 195.777344 C 85.457031 197.3125 86.546875 198.535156 87.195312 199.453125 C 87.808594 200.320312 88.117188 201.109375 88.121094 201.820312 C 88.121094 207.792969 88.128906 213.347656 88.140625 218.476562 C 88.140625 218.570312 88.152344 218.660156 88.175781 218.753906 C 88.433594 219.75 88.917969 220.652344 89.632812 221.453125 C 90.574219 222.511719 91.859375 223.851562 93.488281 225.46875 C 94.070312 226.050781 94.683594 226.75 95.324219 227.570312 C 95.375 227.636719 95.445312 227.675781 95.53125 227.679688 C 95.613281 227.6875 95.6875 227.660156 95.75 227.597656 C 102.214844 221.164062 108.222656 215.144531 113.765625 209.535156 C 116.496094 206.769531 119.476562 204.855469 122.707031 203.78125 C 129.644531 201.472656 137.480469 203.078125 143.007812 207.964844 C 147.429688 211.875 149.734375 216.960938 149.914062 223.222656 C 149.917969 223.375 149.996094 223.445312 150.144531 223.433594 C 150.890625 223.390625 151.554688 223.332031 152.136719 223.25 C 156.511719 222.636719 160.625 223.523438 164.476562 225.910156 C 170.316406 229.527344 173.566406 234.753906 174.226562 241.597656 C 174.324219 242.628906 174.335938 243.523438 174.261719 244.285156 C 174.253906 244.386719 174.289062 244.46875 174.363281 244.535156 C 174.4375 244.605469 174.523438 244.628906 174.621094 244.609375 C 176.269531 244.277344 178.21875 244.589844 179.421875 244.632812 C 183.105469 244.769531 187.089844 246.710938 189.785156 248.988281 C 193.667969 252.28125 196.085938 256.363281 197.042969 261.238281 C 197.585938 263.996094 197.503906 266.644531 196.800781 269.183594 C 196.785156 269.242188 196.792969 269.292969 196.832031 269.339844 C 196.867188 269.386719 196.914062 269.410156 196.972656 269.410156 C 200.523438 269.367188 203.738281 270.175781 206.617188 271.839844 C 207.992188 272.636719 210.0625 274.445312 212.828125 277.269531 C 219.871094 284.460938 230.589844 295.207031 244.976562 309.507812 C 246.605469 311.128906 247.84375 312.136719 248.695312 312.535156 C 250.128906 313.203125 251.679688 313.617188 253.34375 313.78125 C 254.753906 313.921875 256.246094 313.710938 257.824219 313.152344 C 262.855469 311.375 265.957031 307.003906 266.371094 301.734375 C 266.453125 300.703125 266.207031 299.859375 266.148438 299.011719 C 266.0625 297.792969 265.480469 296.625 264.695312 295.839844 C 251.140625 282.257812 235.078125 266.066406 216.503906 247.261719 C 215.105469 245.847656 214.886719 244.261719 215.84375 242.507812 C 215.902344 242.402344 215.96875 242.304688 216.050781 242.21875 C 218.058594 240.015625 220.699219 236.996094 223.757812 239.914062 C 227.601562 243.582031 231.1875 247.078125 234.511719 250.394531 C 245.203125 261.0625 257.425781 273.3125 271.183594 287.152344 C 272.054688 288.027344 273.722656 289.628906 275.125 290.242188 C 278.730469 291.824219 283.074219 291.722656 286.417969 289.484375 C 289.871094 287.175781 291.804688 284.054688 292.226562 280.117188 C 292.371094 278.796875 292.332031 277.773438 292.109375 277.042969 C 292.050781 276.84375 291.832031 276.449219 291.453125 275.855469 C 291.394531 275.757812 291.320312 275.667969 291.238281 275.585938 C 274.515625 258.78125 264.597656 248.808594 261.488281 245.664062 C 254.828125 238.933594 250.167969 234.277344 247.503906 231.691406 C 245.296875 229.550781 242.757812 226.734375 240.398438 224.632812 C 239.65625 223.96875 238.375 222.574219 238.09375 221.714844 C 237.296875 219.320312 239.140625 217.152344 240.902344 215.882812 C 243.0625 214.335938 245.0625 214.496094 246.90625 216.363281 C 258.410156 227.992188 268.425781 238.140625 276.953125 246.808594 C 282.75 252.699219 287.851562 257.820312 292.261719 262.171875 C 293.332031 263.234375 294.417969 264.296875 295.515625 265.363281 C 296.929688 266.730469 298.09375 267.636719 299 268.074219 C 301.417969 269.242188 304.074219 269.851562 306.8125 269.15625 C 310.613281 268.1875 313.332031 265.921875 314.964844 262.363281 C 315.539062 261.113281 316.171875 258.730469 315.953125 257.480469 C 315.6875 255.976562 315.242188 254.636719 314.617188 253.457031 C 314.164062 252.609375 313.277344 251.507812 311.957031 250.15625 C 310.691406 248.867188 309.640625 247.800781 308.804688 246.964844 C 281.375 219.558594 265.261719 203.429688 260.460938 198.578125 C 260.238281 198.351562 250.902344 188.953125 232.457031 170.386719 C 232.226562 170.15625 231.953125 170.042969 231.625 170.042969 L 214.546875 170.042969 C 214.179688 170.042969 213.863281 170.171875 213.597656 170.425781 C 209.882812 174.03125 205.726562 178.171875 201.128906 182.851562 C 199.167969 184.847656 197.042969 186.609375 194.742188 188.136719 C 190.859375 190.722656 186.390625 192.457031 181.332031 193.34375 C 178.855469 193.777344 176.316406 193.980469 173.714844 193.949219 C 172.113281 193.933594 170.542969 193.546875 168.785156 193.519531 C 168.675781 193.519531 168.5625 193.5 168.457031 193.460938 C 168.257812 193.386719 168.082031 193.339844 167.925781 193.316406 C 166.703125 193.140625 165.503906 192.886719 164.332031 192.550781 C 158.132812 190.78125 152.753906 187.605469 148.199219 183.015625 C 147.839844 182.65625 146.792969 181.585938 145.058594 179.808594 C 143.585938 178.304688 143.289062 176.550781 144.164062 174.550781 C 144.214844 174.4375 144.277344 174.335938 144.355469 174.242188 C 145.238281 173.203125 145.761719 172.601562 145.921875 172.4375 C 159.832031 158.308594 173.046875 144.996094 185.570312 132.488281 C 185.601562 132.460938 185.609375 132.425781 185.59375 132.386719 C 185.578125 132.347656 185.546875 132.328125 185.503906 132.328125 Z M 156.910156 176.488281 C 159.6875 179.027344 162.917969 180.902344 166.605469 182.105469 C 168.210938 182.632812 170.378906 183.042969 173.101562 183.332031 C 174.003906 183.429688 175 183.425781 176.085938 183.324219 C 177.945312 183.152344 178.9375 183.054688 179.066406 183.03125 C 182.492188 182.421875 185.601562 181.261719 188.394531 179.542969 C 190.238281 178.40625 192.648438 176.320312 195.625 173.285156 C 198.902344 169.945312 202.199219 166.644531 205.515625 163.386719 C 206.898438 162.03125 208.171875 160.898438 209.339844 159.984375 C 209.546875 159.820312 209.78125 159.738281 210.046875 159.738281 L 236.113281 159.738281 C 236.414062 159.738281 236.671875 159.84375 236.882812 160.054688 L 310.539062 233.714844 C 310.597656 233.769531 310.65625 233.769531 310.710938 233.714844 C 315.582031 228.773438 320.0625 224.324219 324.148438 220.363281 C 325.148438 219.394531 325.648438 218.109375 325.652344 216.511719 C 325.660156 213.585938 325.664062 208.234375 325.667969 200.453125 C 325.667969 198.808594 325.792969 197.644531 326.046875 196.964844 C 326.46875 195.839844 327.09375 194.847656 327.921875 193.992188 C 329.101562 192.777344 332.078125 189.847656 336.851562 185.207031 C 337.417969 184.65625 337.703125 184.324219 337.714844 184.214844 C 337.726562 184.074219 337.683594 183.960938 337.585938 183.863281 L 280.78125 127.304688 C 280.632812 127.15625 280.453125 127.082031 280.242188 127.082031 C 253.160156 127.09375 229.734375 127.089844 209.960938 127.070312 C 208.597656 127.066406 207.339844 127.285156 206.179688 127.71875 C 205.34375 128.027344 203.804688 129.121094 202.984375 129.925781 C 201.539062 131.347656 199.371094 133.515625 196.476562 136.425781 C 176.867188 156.140625 165.492188 167.546875 162.347656 170.644531 C 160.195312 172.773438 158.378906 174.628906 156.902344 176.214844 C 156.8125 176.308594 156.816406 176.398438 156.910156 176.488281 Z M 136.75 230.367188 C 137.207031 229.90625 137.613281 229.410156 137.972656 228.871094 C 138.328125 228.332031 138.632812 227.761719 138.875 227.164062 C 139.121094 226.5625 139.308594 225.945312 139.429688 225.3125 C 139.554688 224.675781 139.617188 224.035156 139.613281 223.386719 C 139.613281 222.742188 139.546875 222.101562 139.417969 221.464844 C 139.289062 220.832031 139.101562 220.214844 138.851562 219.617188 C 138.601562 219.023438 138.296875 218.453125 137.933594 217.917969 C 137.574219 217.382812 137.160156 216.886719 136.703125 216.429688 L 136.308594 216.039062 C 135.847656 215.582031 135.351562 215.175781 134.8125 214.816406 C 134.269531 214.460938 133.703125 214.15625 133.105469 213.914062 C 132.503906 213.667969 131.886719 213.480469 131.253906 213.359375 C 130.617188 213.234375 129.976562 213.171875 129.328125 213.175781 C 128.683594 213.175781 128.042969 213.242188 127.40625 213.371094 C 126.773438 213.5 126.15625 213.6875 125.558594 213.9375 C 124.964844 214.1875 124.394531 214.492188 123.859375 214.855469 C 123.324219 215.214844 122.828125 215.625 122.371094 216.085938 L 98.453125 240.167969 C 98 240.628906 97.59375 241.128906 97.234375 241.667969 C 96.875 242.207031 96.574219 242.773438 96.328125 243.375 C 96.085938 243.972656 95.898438 244.589844 95.773438 245.226562 C 95.652344 245.859375 95.589844 246.5 95.59375 247.148438 C 95.59375 247.796875 95.660156 248.4375 95.789062 249.070312 C 95.917969 249.703125 96.105469 250.320312 96.355469 250.917969 C 96.605469 251.515625 96.910156 252.082031 97.273438 252.617188 C 97.632812 253.15625 98.042969 253.652344 98.503906 254.105469 L 98.898438 254.5 C 99.355469 254.953125 99.855469 255.363281 100.394531 255.71875 C 100.933594 256.078125 101.503906 256.378906 102.101562 256.625 C 102.703125 256.871094 103.320312 257.054688 103.953125 257.179688 C 104.589844 257.300781 105.230469 257.363281 105.878906 257.359375 C 106.523438 257.359375 107.164062 257.292969 107.800781 257.164062 C 108.433594 257.035156 109.050781 256.847656 109.644531 256.597656 C 110.242188 256.347656 110.808594 256.042969 111.347656 255.679688 C 111.882812 255.320312 112.378906 254.910156 112.835938 254.449219 Z M 160.464844 236.289062 C 160.003906 235.828125 159.503906 235.417969 158.964844 235.054688 C 158.421875 234.695312 157.851562 234.386719 157.25 234.140625 C 156.648438 233.890625 156.027344 233.703125 155.386719 233.574219 C 154.75 233.449219 154.105469 233.382812 153.453125 233.382812 C 152.804688 233.382812 152.15625 233.449219 151.519531 233.574219 C 150.878906 233.703125 150.261719 233.890625 149.660156 234.140625 C 149.058594 234.386719 148.484375 234.695312 147.945312 235.054688 C 147.402344 235.417969 146.902344 235.828125 146.441406 236.289062 L 120.222656 262.507812 C 119.761719 262.96875 119.351562 263.46875 118.988281 264.011719 C 118.628906 264.554688 118.320312 265.125 118.074219 265.726562 C 117.824219 266.328125 117.636719 266.949219 117.507812 267.585938 C 117.382812 268.222656 117.316406 268.871094 117.316406 269.519531 C 117.316406 270.171875 117.382812 270.816406 117.507812 271.457031 C 117.636719 272.09375 117.824219 272.714844 118.074219 273.316406 C 118.320312 273.917969 118.628906 274.488281 118.988281 275.03125 C 119.351562 275.570312 119.761719 276.070312 120.222656 276.53125 L 120.597656 276.910156 C 121.058594 277.367188 121.558594 277.78125 122.101562 278.140625 C 122.640625 278.503906 123.214844 278.808594 123.816406 279.058594 C 124.417969 279.308594 125.035156 279.496094 125.675781 279.621094 C 126.3125 279.75 126.957031 279.8125 127.609375 279.8125 C 128.261719 279.8125 128.90625 279.75 129.542969 279.621094 C 130.183594 279.496094 130.804688 279.308594 131.40625 279.058594 C 132.007812 278.808594 132.578125 278.503906 133.117188 278.140625 C 133.660156 277.78125 134.160156 277.367188 134.621094 276.910156 L 160.839844 250.6875 C 161.300781 250.226562 161.714844 249.726562 162.074219 249.1875 C 162.4375 248.644531 162.742188 248.074219 162.992188 247.472656 C 163.242188 246.871094 163.429688 246.25 163.554688 245.609375 C 163.683594 244.972656 163.746094 244.328125 163.746094 243.675781 C 163.746094 243.023438 163.683594 242.378906 163.554688 241.742188 C 163.429688 241.101562 163.242188 240.484375 162.992188 239.882812 C 162.742188 239.28125 162.4375 238.707031 162.074219 238.167969 C 161.714844 237.625 161.300781 237.125 160.839844 236.664062 Z M 183.558594 257.808594 C 183.09375 257.347656 182.589844 256.929688 182.046875 256.566406 C 181.503906 256.199219 180.925781 255.890625 180.320312 255.640625 C 179.714844 255.386719 179.09375 255.195312 178.449219 255.066406 C 177.804688 254.9375 177.15625 254.875 176.5 254.871094 C 175.84375 254.871094 175.195312 254.933594 174.550781 255.0625 C 173.90625 255.1875 173.28125 255.375 172.675781 255.625 C 172.070312 255.875 171.496094 256.183594 170.949219 256.546875 C 170.402344 256.910156 169.898438 257.324219 169.433594 257.785156 L 142.414062 284.710938 C 141.949219 285.171875 141.535156 285.675781 141.167969 286.222656 C 140.804688 286.765625 140.496094 287.339844 140.242188 287.945312 C 139.992188 288.550781 139.800781 289.175781 139.671875 289.820312 C 139.542969 290.460938 139.476562 291.113281 139.476562 291.769531 C 139.476562 292.425781 139.539062 293.074219 139.664062 293.71875 C 139.792969 294.359375 139.980469 294.984375 140.230469 295.59375 C 140.480469 296.199219 140.785156 296.773438 141.148438 297.320312 C 141.511719 297.867188 141.925781 298.371094 142.390625 298.835938 L 142.757812 299.207031 C 143.222656 299.671875 143.726562 300.085938 144.269531 300.453125 C 144.816406 300.816406 145.390625 301.125 145.996094 301.378906 C 146.601562 301.628906 147.226562 301.820312 147.867188 301.949219 C 148.511719 302.078125 149.160156 302.144531 149.816406 302.144531 C 150.472656 302.144531 151.121094 302.082031 151.765625 301.957031 C 152.410156 301.828125 153.035156 301.640625 153.640625 301.390625 C 154.246094 301.140625 154.824219 300.835938 155.367188 300.472656 C 155.914062 300.109375 156.421875 299.695312 156.886719 299.230469 L 183.902344 272.308594 C 184.367188 271.84375 184.78125 271.339844 185.148438 270.796875 C 185.511719 270.25 185.820312 269.675781 186.074219 269.070312 C 186.328125 268.464844 186.515625 267.839844 186.644531 267.199219 C 186.773438 266.554688 186.839844 265.90625 186.839844 265.25 C 186.84375 264.59375 186.78125 263.945312 186.652344 263.300781 C 186.527344 262.65625 186.335938 262.03125 186.085938 261.425781 C 185.835938 260.820312 185.53125 260.242188 185.167969 259.695312 C 184.804688 259.152344 184.390625 258.644531 183.929688 258.179688 Z M 197.753906 279.742188 C 195.625 279.464844 193.574219 279.792969 191.59375 280.722656 C 190.847656 281.074219 190.066406 281.667969 189.261719 282.507812 C 184.566406 287.367188 177.515625 294.5 168.113281 303.902344 C 165.984375 306.027344 164.308594 307.429688 162.789062 309.570312 C 161.351562 311.589844 161.542969 315.128906 162.335938 317.226562 C 163.511719 320.332031 165.671875 322.421875 168.8125 323.496094 C 168.824219 323.5 168.839844 323.5 168.851562 323.503906 L 171.246094 323.972656 C 171.277344 323.980469 171.3125 323.984375 171.34375 323.984375 C 173.226562 323.996094 175 323.578125 176.664062 322.738281 C 177.65625 322.238281 179.03125 321.105469 180.78125 319.34375 C 189.117188 310.964844 196.140625 303.957031 201.847656 298.320312 C 203.992188 296.207031 205.253906 294.832031 206.082031 292.03125 C 206.453125 290.773438 206.492188 289.464844 206.199219 288.105469 C 205.71875 285.910156 204.734375 284.0625 203.238281 282.566406 C 201.621094 280.949219 199.792969 280.007812 197.753906 279.742188 Z M 216.101562 295.574219 C 214.695312 299.46875 212.921875 302.488281 210.78125 304.632812 C 206.722656 308.695312 204.121094 311.300781 202.976562 312.449219 C 202.894531 312.53125 202.851562 312.632812 202.851562 312.75 C 202.851562 312.867188 202.894531 312.964844 202.976562 313.046875 C 207.296875 317.375 212.074219 322.179688 217.316406 327.464844 C 221.191406 331.371094 226.683594 332.601562 231.53125 329.660156 C 235.136719 327.46875 237.074219 324.179688 237.335938 319.785156 C 237.40625 318.535156 237.054688 317.1875 236.273438 315.742188 C 236.214844 315.640625 236.148438 315.546875 236.0625 315.460938 L 216.261719 295.539062 C 216.238281 295.511719 216.207031 295.503906 216.171875 295.511719 C 216.136719 295.519531 216.113281 295.542969 216.101562 295.574219 Z M 216.101562 295.574219 " fill-opacity="1" fill-rule="nonzero"/></g></svg>