<svg xmlns="http://www.w3.org/2000/svg" xmlns:xlink="http://www.w3.org/1999/xlink" width="550" zoomAndPan="magnify" viewBox="0 0 412.5 412.499996" height="550" preserveAspectRatio="xMidYMid meet" version="1.0"><defs><clipPath id="b7f732a872"><path d="M 22.207031 26.402344 L 390 26.402344 L 390 358.25 L 22.207031 358.25 Z M 22.207031 26.402344 " clip-rule="nonzero"/></clipPath></defs><g clip-path="url(#b7f732a872)"><path fill="#a50e0e" d="M 245.523438 91.449219 L 245.523438 63.457031 L 166.355469 63.457031 L 166.355469 91.449219 Z M 275.210938 221.199219 L 293.109375 221.199219 L 293.109375 188.632812 L 275.210938 188.632812 Z M 299.640625 234.261719 C 303.25 234.261719 306.171875 231.335938 306.171875 227.730469 L 306.171875 211.449219 L 322.183594 211.449219 C 340.660156 211.449219 357.453125 203.894531 369.621094 191.722656 C 372.03125 189.316406 374.257812 186.722656 376.285156 183.976562 L 376.285156 331.441406 C 376.285156 335.152344 374.761719 338.527344 372.3125 340.976562 C 369.863281 343.425781 366.484375 344.949219 362.777344 344.949219 L 49.097656 344.949219 C 45.394531 344.949219 42.015625 343.425781 39.566406 340.976562 C 37.117188 338.527344 35.59375 335.152344 35.59375 331.441406 L 35.59375 183.976562 C 37.621094 186.722656 39.847656 189.316406 42.257812 191.722656 C 54.425781 203.894531 71.21875 211.449219 89.695312 211.449219 L 105.703125 211.449219 L 105.703125 227.730469 C 105.703125 231.335938 108.628906 234.261719 112.238281 234.261719 L 143.199219 234.261719 C 146.804688 234.261719 149.730469 231.335938 149.730469 227.730469 L 149.730469 211.449219 L 262.144531 211.449219 L 262.144531 227.730469 C 262.144531 231.335938 265.070312 234.261719 268.679688 234.261719 Z M 262.144531 198.382812 L 149.730469 198.382812 L 149.730469 182.101562 C 149.730469 178.496094 146.804688 175.570312 143.199219 175.570312 L 112.238281 175.570312 C 108.628906 175.570312 105.703125 178.496094 105.703125 182.101562 L 105.703125 198.382812 L 89.695312 198.382812 C 74.824219 198.382812 61.296875 192.292969 51.492188 182.488281 C 41.683594 172.683594 35.59375 159.15625 35.59375 144.285156 L 35.59375 118.019531 C 35.59375 114.3125 37.117188 110.9375 39.566406 108.484375 C 42.015625 106.035156 45.394531 104.511719 49.097656 104.511719 L 362.777344 104.511719 C 366.484375 104.511719 369.863281 106.035156 372.3125 108.484375 C 374.761719 110.9375 376.285156 114.3125 376.285156 118.019531 L 376.285156 144.285156 C 376.285156 159.15625 370.195312 172.683594 360.386719 182.488281 C 350.582031 192.292969 337.054688 198.382812 322.183594 198.382812 L 306.171875 198.382812 L 306.171875 182.101562 C 306.171875 178.496094 303.25 175.570312 299.640625 175.570312 L 268.679688 175.570312 C 265.070312 175.570312 262.144531 178.496094 262.144531 182.101562 Z M 118.769531 221.199219 L 136.667969 221.199219 L 136.667969 188.632812 L 118.769531 188.632812 Z M 153.289062 91.449219 L 141.152344 91.449219 L 141.152344 48.335938 C 141.152344 45.945312 142.195312 43.757812 143.863281 42.164062 C 145.625 40.488281 148.082031 39.449219 150.808594 39.449219 L 261.070312 39.449219 C 263.792969 39.449219 266.25 40.488281 268.011719 42.164062 C 269.683594 43.757812 270.722656 45.945312 270.722656 48.335938 L 270.722656 91.449219 L 258.589844 91.449219 L 258.589844 56.925781 C 258.589844 53.320312 255.664062 50.394531 252.054688 50.394531 L 159.820312 50.394531 C 156.214844 50.394531 153.289062 53.320312 153.289062 56.925781 Z M 362.777344 358.011719 L 49.097656 358.011719 C 41.789062 358.011719 35.144531 355.023438 30.332031 350.210938 C 25.519531 345.398438 22.53125 338.753906 22.53125 331.441406 L 22.53125 118.019531 C 22.53125 110.707031 25.519531 104.0625 30.332031 99.25 C 35.144531 94.4375 41.789062 91.449219 49.097656 91.449219 L 128.089844 91.449219 L 128.089844 48.335938 C 128.089844 42.246094 130.695312 36.71875 134.882812 32.726562 C 138.988281 28.8125 144.628906 26.382812 150.808594 26.382812 L 261.070312 26.382812 C 267.246094 26.382812 272.886719 28.816406 276.992188 32.726562 C 281.183594 36.71875 283.789062 42.246094 283.789062 48.335938 L 283.789062 91.449219 L 362.777344 91.449219 C 370.089844 91.449219 376.734375 94.4375 381.546875 99.25 C 386.359375 104.0625 389.347656 110.707031 389.347656 118.019531 L 389.347656 331.441406 C 389.347656 338.753906 386.359375 345.398438 381.546875 350.210938 C 376.734375 355.023438 370.089844 358.011719 362.777344 358.011719 Z M 362.777344 358.011719 " fill-opacity="1" fill-rule="evenodd"/></g></svg>